<mxfile host="app.diagrams.net" agent="Mozilla/5.0 (Windows NT 10.0; Win64; x64) AppleWebKit/537.36 (KHTML, like Gecko) Chrome/141.0.0.0 Safari/537.36" version="28.2.8">
  <diagram name="Página-1" id="0ddcDAv47Crj02-Z5wdW">
    <mxGraphModel dx="601" dy="297" grid="1" gridSize="10" guides="1" tooltips="1" connect="1" arrows="1" fold="1" page="1" pageScale="1" pageWidth="827" pageHeight="1169" math="0" shadow="0">
      <root>
        <mxCell id="0" />
        <mxCell id="1" parent="0" />
        <mxCell id="qwevfZe19Dke6D4Sr38E-8" value="" style="edgeStyle=orthogonalEdgeStyle;rounded=0;orthogonalLoop=1;jettySize=auto;html=1;" edge="1" parent="1" source="qwevfZe19Dke6D4Sr38E-5" target="qwevfZe19Dke6D4Sr38E-7">
          <mxGeometry relative="1" as="geometry" />
        </mxCell>
        <mxCell id="qwevfZe19Dke6D4Sr38E-5" value="AmbienteConfig" style="rounded=0;whiteSpace=wrap;html=1;" vertex="1" parent="1">
          <mxGeometry x="349" y="10" width="142.34" height="30" as="geometry" />
        </mxCell>
        <mxCell id="qwevfZe19Dke6D4Sr38E-10" value="" style="edgeStyle=orthogonalEdgeStyle;rounded=0;orthogonalLoop=1;jettySize=auto;html=1;" edge="1" parent="1" source="qwevfZe19Dke6D4Sr38E-7" target="qwevfZe19Dke6D4Sr38E-9">
          <mxGeometry relative="1" as="geometry" />
        </mxCell>
        <mxCell id="qwevfZe19Dke6D4Sr38E-7" value="- ambiente : String" style="whiteSpace=wrap;html=1;rounded=0;" vertex="1" parent="1">
          <mxGeometry x="349" y="40" width="142.34" height="30" as="geometry" />
        </mxCell>
        <mxCell id="qwevfZe19Dke6D4Sr38E-12" value="" style="edgeStyle=orthogonalEdgeStyle;rounded=0;orthogonalLoop=1;jettySize=auto;html=1;" edge="1" parent="1" source="qwevfZe19Dke6D4Sr38E-9" target="qwevfZe19Dke6D4Sr38E-11">
          <mxGeometry relative="1" as="geometry" />
        </mxCell>
        <mxCell id="qwevfZe19Dke6D4Sr38E-9" value="&lt;div style=&quot;text-align: justify;&quot;&gt;&lt;span style=&quot;background-color: transparent; color: light-dark(rgb(0, 0, 0), rgb(255, 255, 255));&quot;&gt;+getAmbiente(): String&lt;/span&gt;&lt;/div&gt;&lt;div style=&quot;text-align: justify;&quot;&gt;+setAmbiente(String)&lt;/div&gt;" style="whiteSpace=wrap;html=1;rounded=0;align=left;" vertex="1" parent="1">
          <mxGeometry x="349" y="70" width="142.34" height="50" as="geometry" />
        </mxCell>
        <mxCell id="qwevfZe19Dke6D4Sr38E-14" value="" style="edgeStyle=orthogonalEdgeStyle;rounded=0;orthogonalLoop=1;jettySize=auto;html=1;" edge="1" parent="1" source="qwevfZe19Dke6D4Sr38E-11" target="qwevfZe19Dke6D4Sr38E-13">
          <mxGeometry relative="1" as="geometry" />
        </mxCell>
        <mxCell id="qwevfZe19Dke6D4Sr38E-11" value="SocialMediaFactory" style="whiteSpace=wrap;html=1;rounded=0;" vertex="1" parent="1">
          <mxGeometry x="333.04" y="160" width="174.26" height="40" as="geometry" />
        </mxCell>
        <mxCell id="qwevfZe19Dke6D4Sr38E-17" value="" style="edgeStyle=orthogonalEdgeStyle;rounded=0;orthogonalLoop=1;jettySize=auto;html=1;" edge="1" parent="1" source="qwevfZe19Dke6D4Sr38E-13" target="qwevfZe19Dke6D4Sr38E-16">
          <mxGeometry relative="1" as="geometry" />
        </mxCell>
        <mxCell id="qwevfZe19Dke6D4Sr38E-13" value="+ criarAdapter(tipo:String) AdapterMidiaSocial (interface)" style="whiteSpace=wrap;html=1;rounded=0;align=left;" vertex="1" parent="1">
          <mxGeometry x="333.04" y="200" width="174.26" height="60" as="geometry" />
        </mxCell>
        <mxCell id="qwevfZe19Dke6D4Sr38E-15" value="usa" style="text;html=1;whiteSpace=wrap;strokeColor=none;fillColor=none;align=center;verticalAlign=middle;rounded=0;" vertex="1" parent="1">
          <mxGeometry x="413" y="120" width="60" height="30" as="geometry" />
        </mxCell>
        <mxCell id="qwevfZe19Dke6D4Sr38E-19" value="" style="edgeStyle=orthogonalEdgeStyle;rounded=0;orthogonalLoop=1;jettySize=auto;html=1;" edge="1" parent="1" source="qwevfZe19Dke6D4Sr38E-16" target="qwevfZe19Dke6D4Sr38E-18">
          <mxGeometry relative="1" as="geometry" />
        </mxCell>
        <mxCell id="qwevfZe19Dke6D4Sr38E-16" value="AdapterSocialMedia (interface)" style="whiteSpace=wrap;html=1;rounded=0;align=center;" vertex="1" parent="1">
          <mxGeometry x="298.61" y="300" width="243.12" height="50" as="geometry" />
        </mxCell>
        <mxCell id="qwevfZe19Dke6D4Sr38E-18" value="+ publicar(conteudo: Conteudo): Publicacao&lt;div&gt;+ obterEstastisticas(): Estastisticas&lt;/div&gt;" style="whiteSpace=wrap;html=1;rounded=0;align=left;" vertex="1" parent="1">
          <mxGeometry x="298.61" y="350" width="243.12" height="60" as="geometry" />
        </mxCell>
        <mxCell id="qwevfZe19Dke6D4Sr38E-20" value="retorna" style="text;html=1;whiteSpace=wrap;strokeColor=none;fillColor=none;align=center;verticalAlign=middle;rounded=0;" vertex="1" parent="1">
          <mxGeometry x="420.56" y="270" width="60" height="30" as="geometry" />
        </mxCell>
        <mxCell id="qwevfZe19Dke6D4Sr38E-23" value="" style="edgeStyle=orthogonalEdgeStyle;rounded=0;orthogonalLoop=1;jettySize=auto;html=1;" edge="1" parent="1" source="qwevfZe19Dke6D4Sr38E-21" target="qwevfZe19Dke6D4Sr38E-22">
          <mxGeometry relative="1" as="geometry" />
        </mxCell>
        <mxCell id="qwevfZe19Dke6D4Sr38E-43" value="" style="edgeStyle=orthogonalEdgeStyle;rounded=0;orthogonalLoop=1;jettySize=auto;html=1;entryX=0.006;entryY=0.843;entryDx=0;entryDy=0;entryPerimeter=0;" edge="1" parent="1">
          <mxGeometry relative="1" as="geometry">
            <mxPoint x="147.5444827586207" y="519.9999999999999" as="sourcePoint" />
            <mxPoint x="298.60871999999995" y="400.58000000000004" as="targetPoint" />
            <Array as="points">
              <mxPoint x="147.54000000000002" y="470" />
              <mxPoint x="247.54" y="470" />
              <mxPoint x="247.54" y="400" />
              <mxPoint x="287.53999999999996" y="400" />
            </Array>
          </mxGeometry>
        </mxCell>
        <mxCell id="qwevfZe19Dke6D4Sr38E-21" value="TwitterAdapter" style="rounded=0;whiteSpace=wrap;html=1;" vertex="1" parent="1">
          <mxGeometry x="99" y="520" width="120" height="30" as="geometry" />
        </mxCell>
        <mxCell id="qwevfZe19Dke6D4Sr38E-25" value="" style="edgeStyle=orthogonalEdgeStyle;rounded=0;orthogonalLoop=1;jettySize=auto;html=1;" edge="1" parent="1" source="qwevfZe19Dke6D4Sr38E-22" target="qwevfZe19Dke6D4Sr38E-24">
          <mxGeometry relative="1" as="geometry" />
        </mxCell>
        <mxCell id="qwevfZe19Dke6D4Sr38E-22" value="- nomeRede: String" style="whiteSpace=wrap;html=1;rounded=0;" vertex="1" parent="1">
          <mxGeometry x="99" y="550" width="120" height="20" as="geometry" />
        </mxCell>
        <mxCell id="qwevfZe19Dke6D4Sr38E-24" value="+ publicar(...)&lt;div&gt;+obetrEstastísticas()&lt;/div&gt;" style="whiteSpace=wrap;html=1;rounded=0;align=left;" vertex="1" parent="1">
          <mxGeometry x="99" y="570" width="120" height="40" as="geometry" />
        </mxCell>
        <mxCell id="qwevfZe19Dke6D4Sr38E-27" value="" style="edgeStyle=orthogonalEdgeStyle;rounded=0;orthogonalLoop=1;jettySize=auto;html=1;" edge="1" parent="1" source="qwevfZe19Dke6D4Sr38E-28" target="qwevfZe19Dke6D4Sr38E-30">
          <mxGeometry relative="1" as="geometry" />
        </mxCell>
        <mxCell id="qwevfZe19Dke6D4Sr38E-44" value="" style="edgeStyle=orthogonalEdgeStyle;rounded=0;orthogonalLoop=1;jettySize=auto;html=1;" edge="1" parent="1" source="qwevfZe19Dke6D4Sr38E-28">
          <mxGeometry relative="1" as="geometry">
            <mxPoint x="389" y="410" as="targetPoint" />
            <Array as="points">
              <mxPoint x="329" y="465" />
              <mxPoint x="389" y="465" />
              <mxPoint x="389" y="410" />
            </Array>
          </mxGeometry>
        </mxCell>
        <mxCell id="qwevfZe19Dke6D4Sr38E-28" value="InstagramAdapter" style="rounded=0;whiteSpace=wrap;html=1;" vertex="1" parent="1">
          <mxGeometry x="269" y="520" width="120" height="30" as="geometry" />
        </mxCell>
        <mxCell id="qwevfZe19Dke6D4Sr38E-29" value="" style="edgeStyle=orthogonalEdgeStyle;rounded=0;orthogonalLoop=1;jettySize=auto;html=1;" edge="1" parent="1" source="qwevfZe19Dke6D4Sr38E-30" target="qwevfZe19Dke6D4Sr38E-31">
          <mxGeometry relative="1" as="geometry" />
        </mxCell>
        <mxCell id="qwevfZe19Dke6D4Sr38E-30" value="- nomeRede: String" style="whiteSpace=wrap;html=1;rounded=0;" vertex="1" parent="1">
          <mxGeometry x="269" y="550" width="120" height="20" as="geometry" />
        </mxCell>
        <mxCell id="qwevfZe19Dke6D4Sr38E-31" value="+ publicar(...)&lt;div&gt;+obetrEstastísticas()&lt;/div&gt;" style="whiteSpace=wrap;html=1;rounded=0;align=left;" vertex="1" parent="1">
          <mxGeometry x="269" y="570" width="120" height="40" as="geometry" />
        </mxCell>
        <mxCell id="qwevfZe19Dke6D4Sr38E-32" value="" style="edgeStyle=orthogonalEdgeStyle;rounded=0;orthogonalLoop=1;jettySize=auto;html=1;" edge="1" parent="1" source="qwevfZe19Dke6D4Sr38E-33" target="qwevfZe19Dke6D4Sr38E-35">
          <mxGeometry relative="1" as="geometry" />
        </mxCell>
        <mxCell id="qwevfZe19Dke6D4Sr38E-45" value="" style="edgeStyle=orthogonalEdgeStyle;rounded=0;orthogonalLoop=1;jettySize=auto;html=1;entryX=0.619;entryY=1;entryDx=0;entryDy=0;entryPerimeter=0;" edge="1" parent="1" target="qwevfZe19Dke6D4Sr38E-18">
          <mxGeometry relative="1" as="geometry">
            <mxPoint x="503.0044827586207" y="519.9999999999999" as="sourcePoint" />
            <mxPoint x="383.0044827586207" y="410.0000000000001" as="targetPoint" />
            <Array as="points">
              <mxPoint x="503" y="465" />
              <mxPoint x="449" y="465" />
            </Array>
          </mxGeometry>
        </mxCell>
        <mxCell id="qwevfZe19Dke6D4Sr38E-33" value="LinkedInAdapter" style="rounded=0;whiteSpace=wrap;html=1;" vertex="1" parent="1">
          <mxGeometry x="439" y="520" width="120" height="30" as="geometry" />
        </mxCell>
        <mxCell id="qwevfZe19Dke6D4Sr38E-34" value="" style="edgeStyle=orthogonalEdgeStyle;rounded=0;orthogonalLoop=1;jettySize=auto;html=1;" edge="1" parent="1" source="qwevfZe19Dke6D4Sr38E-35" target="qwevfZe19Dke6D4Sr38E-36">
          <mxGeometry relative="1" as="geometry" />
        </mxCell>
        <mxCell id="qwevfZe19Dke6D4Sr38E-35" value="- nomeRede: String" style="whiteSpace=wrap;html=1;rounded=0;" vertex="1" parent="1">
          <mxGeometry x="439" y="550" width="120" height="20" as="geometry" />
        </mxCell>
        <mxCell id="qwevfZe19Dke6D4Sr38E-36" value="+ publicar(...)&lt;div&gt;+obetrEstastísticas()&lt;/div&gt;" style="whiteSpace=wrap;html=1;rounded=0;align=left;" vertex="1" parent="1">
          <mxGeometry x="439" y="570" width="120" height="40" as="geometry" />
        </mxCell>
        <mxCell id="qwevfZe19Dke6D4Sr38E-37" value="" style="edgeStyle=orthogonalEdgeStyle;rounded=0;orthogonalLoop=1;jettySize=auto;html=1;" edge="1" parent="1" source="qwevfZe19Dke6D4Sr38E-38" target="qwevfZe19Dke6D4Sr38E-40">
          <mxGeometry relative="1" as="geometry" />
        </mxCell>
        <mxCell id="qwevfZe19Dke6D4Sr38E-47" value="" style="edgeStyle=orthogonalEdgeStyle;rounded=0;orthogonalLoop=1;jettySize=auto;html=1;entryX=1;entryY=0.75;entryDx=0;entryDy=0;" edge="1" parent="1" target="qwevfZe19Dke6D4Sr38E-18">
          <mxGeometry relative="1" as="geometry">
            <mxPoint x="686.3144827586207" y="519.9999999999999" as="sourcePoint" />
            <mxPoint x="559.01" y="395" as="targetPoint" />
            <Array as="points">
              <mxPoint x="686" y="470" />
              <mxPoint x="592" y="470" />
              <mxPoint x="592" y="395" />
            </Array>
          </mxGeometry>
        </mxCell>
        <mxCell id="qwevfZe19Dke6D4Sr38E-38" value="TikTok&lt;span style=&quot;background-color: transparent; color: light-dark(rgb(0, 0, 0), rgb(255, 255, 255));&quot;&gt;Adapter&lt;/span&gt;" style="rounded=0;whiteSpace=wrap;html=1;" vertex="1" parent="1">
          <mxGeometry x="609" y="520" width="120" height="30" as="geometry" />
        </mxCell>
        <mxCell id="qwevfZe19Dke6D4Sr38E-39" value="" style="edgeStyle=orthogonalEdgeStyle;rounded=0;orthogonalLoop=1;jettySize=auto;html=1;" edge="1" parent="1" source="qwevfZe19Dke6D4Sr38E-40" target="qwevfZe19Dke6D4Sr38E-41">
          <mxGeometry relative="1" as="geometry" />
        </mxCell>
        <mxCell id="qwevfZe19Dke6D4Sr38E-40" value="- nomeRede: String" style="whiteSpace=wrap;html=1;rounded=0;" vertex="1" parent="1">
          <mxGeometry x="609" y="550" width="120" height="20" as="geometry" />
        </mxCell>
        <mxCell id="qwevfZe19Dke6D4Sr38E-41" value="+ publicar(...)&lt;div&gt;+obetrEstastísticas()&lt;/div&gt;" style="whiteSpace=wrap;html=1;rounded=0;align=left;" vertex="1" parent="1">
          <mxGeometry x="609" y="570" width="120" height="40" as="geometry" />
        </mxCell>
        <mxCell id="qwevfZe19Dke6D4Sr38E-48" value="" style="edgeStyle=orthogonalEdgeStyle;rounded=0;orthogonalLoop=1;jettySize=auto;html=1;" edge="1" parent="1" source="qwevfZe19Dke6D4Sr38E-49" target="qwevfZe19Dke6D4Sr38E-51">
          <mxGeometry relative="1" as="geometry" />
        </mxCell>
        <mxCell id="qwevfZe19Dke6D4Sr38E-49" value="GerenciadorMidiaSocial" style="rounded=0;whiteSpace=wrap;html=1;" vertex="1" parent="1">
          <mxGeometry x="314" y="680" width="199.83" height="30" as="geometry" />
        </mxCell>
        <mxCell id="qwevfZe19Dke6D4Sr38E-50" value="" style="edgeStyle=orthogonalEdgeStyle;rounded=0;orthogonalLoop=1;jettySize=auto;html=1;" edge="1" parent="1" source="qwevfZe19Dke6D4Sr38E-51" target="qwevfZe19Dke6D4Sr38E-52">
          <mxGeometry relative="1" as="geometry" />
        </mxCell>
        <mxCell id="qwevfZe19Dke6D4Sr38E-51" value="- adapter: AdapterMidiaSocial" style="whiteSpace=wrap;html=1;rounded=0;" vertex="1" parent="1">
          <mxGeometry x="314" y="710" width="199.83" height="30" as="geometry" />
        </mxCell>
        <mxCell id="qwevfZe19Dke6D4Sr38E-52" value="&lt;div style=&quot;text-align: justify;&quot;&gt;+ setAdapter(AdapterMidiaSocial)&lt;/div&gt;&lt;div style=&quot;text-align: justify;&quot;&gt;+ publicar(conteudo: Conteudo)&lt;/div&gt;&lt;div style=&quot;text-align: justify;&quot;&gt;+ exibirEstastisticas()&lt;/div&gt;" style="whiteSpace=wrap;html=1;rounded=0;align=left;" vertex="1" parent="1">
          <mxGeometry x="314" y="740" width="199.83" height="50" as="geometry" />
        </mxCell>
        <mxCell id="qwevfZe19Dke6D4Sr38E-55" value="" style="endArrow=classic;html=1;rounded=0;exitX=0.48;exitY=0;exitDx=0;exitDy=0;exitPerimeter=0;entryX=0.425;entryY=1;entryDx=0;entryDy=0;entryPerimeter=0;" edge="1" parent="1" source="qwevfZe19Dke6D4Sr38E-49" target="qwevfZe19Dke6D4Sr38E-41">
          <mxGeometry width="50" height="50" relative="1" as="geometry">
            <mxPoint x="430" y="690" as="sourcePoint" />
            <mxPoint x="480" y="640" as="targetPoint" />
          </mxGeometry>
        </mxCell>
        <mxCell id="qwevfZe19Dke6D4Sr38E-56" value="" style="endArrow=classic;html=1;rounded=0;entryX=0.5;entryY=1;entryDx=0;entryDy=0;" edge="1" parent="1" target="qwevfZe19Dke6D4Sr38E-36">
          <mxGeometry width="50" height="50" relative="1" as="geometry">
            <mxPoint x="410" y="680" as="sourcePoint" />
            <mxPoint x="480" y="640" as="targetPoint" />
          </mxGeometry>
        </mxCell>
        <mxCell id="qwevfZe19Dke6D4Sr38E-57" value="" style="endArrow=classic;html=1;rounded=0;exitX=0.47;exitY=0.024;exitDx=0;exitDy=0;exitPerimeter=0;entryX=0.5;entryY=1;entryDx=0;entryDy=0;" edge="1" parent="1" source="qwevfZe19Dke6D4Sr38E-49" target="qwevfZe19Dke6D4Sr38E-31">
          <mxGeometry width="50" height="50" relative="1" as="geometry">
            <mxPoint x="430" y="690" as="sourcePoint" />
            <mxPoint x="480" y="640" as="targetPoint" />
          </mxGeometry>
        </mxCell>
        <mxCell id="qwevfZe19Dke6D4Sr38E-58" value="" style="endArrow=classic;html=1;rounded=0;entryX=0.5;entryY=1;entryDx=0;entryDy=0;" edge="1" parent="1" target="qwevfZe19Dke6D4Sr38E-24">
          <mxGeometry width="50" height="50" relative="1" as="geometry">
            <mxPoint x="410" y="680" as="sourcePoint" />
            <mxPoint x="480" y="640" as="targetPoint" />
          </mxGeometry>
        </mxCell>
        <mxCell id="qwevfZe19Dke6D4Sr38E-61" value="" style="edgeStyle=orthogonalEdgeStyle;rounded=0;orthogonalLoop=1;jettySize=auto;html=1;" edge="1" parent="1" source="qwevfZe19Dke6D4Sr38E-59" target="qwevfZe19Dke6D4Sr38E-60">
          <mxGeometry relative="1" as="geometry" />
        </mxCell>
        <mxCell id="qwevfZe19Dke6D4Sr38E-59" value="Conteudo" style="rounded=0;whiteSpace=wrap;html=1;" vertex="1" parent="1">
          <mxGeometry x="140" y="840" width="120" height="30" as="geometry" />
        </mxCell>
        <mxCell id="qwevfZe19Dke6D4Sr38E-63" value="" style="edgeStyle=orthogonalEdgeStyle;rounded=0;orthogonalLoop=1;jettySize=auto;html=1;" edge="1" parent="1" source="qwevfZe19Dke6D4Sr38E-60" target="qwevfZe19Dke6D4Sr38E-62">
          <mxGeometry relative="1" as="geometry" />
        </mxCell>
        <mxCell id="qwevfZe19Dke6D4Sr38E-60" value="&lt;div style=&quot;text-align: justify;&quot;&gt;&lt;span style=&quot;background-color: transparent; color: light-dark(rgb(0, 0, 0), rgb(255, 255, 255));&quot;&gt;- texto: String&lt;/span&gt;&lt;/div&gt;&lt;div style=&quot;text-align: justify;&quot;&gt;- midia: String&lt;/div&gt;" style="rounded=0;whiteSpace=wrap;html=1;" vertex="1" parent="1">
          <mxGeometry x="140" y="870" width="120" height="40" as="geometry" />
        </mxCell>
        <mxCell id="qwevfZe19Dke6D4Sr38E-62" value="+ getTexto()&lt;div style=&quot;text-align: justify;&quot;&gt;+ getMidia()&lt;/div&gt;" style="rounded=0;whiteSpace=wrap;html=1;align=center;" vertex="1" parent="1">
          <mxGeometry x="140" y="910" width="120" height="40" as="geometry" />
        </mxCell>
        <mxCell id="qwevfZe19Dke6D4Sr38E-64" value="" style="edgeStyle=orthogonalEdgeStyle;rounded=0;orthogonalLoop=1;jettySize=auto;html=1;" edge="1" parent="1" source="qwevfZe19Dke6D4Sr38E-65" target="qwevfZe19Dke6D4Sr38E-67">
          <mxGeometry relative="1" as="geometry" />
        </mxCell>
        <mxCell id="qwevfZe19Dke6D4Sr38E-65" value="Publicacao" style="rounded=0;whiteSpace=wrap;html=1;" vertex="1" parent="1">
          <mxGeometry x="349" y="840" width="120" height="30" as="geometry" />
        </mxCell>
        <mxCell id="qwevfZe19Dke6D4Sr38E-66" value="" style="edgeStyle=orthogonalEdgeStyle;rounded=0;orthogonalLoop=1;jettySize=auto;html=1;" edge="1" parent="1" source="qwevfZe19Dke6D4Sr38E-67" target="qwevfZe19Dke6D4Sr38E-68">
          <mxGeometry relative="1" as="geometry" />
        </mxCell>
        <mxCell id="qwevfZe19Dke6D4Sr38E-67" value="&lt;div style=&quot;text-align: justify;&quot;&gt;- id: int&lt;/div&gt;&lt;div style=&quot;text-align: justify;&quot;&gt;- rede: String&lt;/div&gt;" style="rounded=0;whiteSpace=wrap;html=1;" vertex="1" parent="1">
          <mxGeometry x="349" y="870" width="120" height="40" as="geometry" />
        </mxCell>
        <mxCell id="qwevfZe19Dke6D4Sr38E-68" value="+ getId()&lt;div&gt;+ getRede()&lt;/div&gt;" style="rounded=0;whiteSpace=wrap;html=1;align=center;" vertex="1" parent="1">
          <mxGeometry x="349" y="910" width="120" height="40" as="geometry" />
        </mxCell>
        <mxCell id="qwevfZe19Dke6D4Sr38E-69" value="" style="edgeStyle=orthogonalEdgeStyle;rounded=0;orthogonalLoop=1;jettySize=auto;html=1;" edge="1" parent="1" source="qwevfZe19Dke6D4Sr38E-70" target="qwevfZe19Dke6D4Sr38E-72">
          <mxGeometry relative="1" as="geometry" />
        </mxCell>
        <mxCell id="qwevfZe19Dke6D4Sr38E-70" value="Estatisticas" style="rounded=0;whiteSpace=wrap;html=1;" vertex="1" parent="1">
          <mxGeometry x="550" y="840" width="141" height="30" as="geometry" />
        </mxCell>
        <mxCell id="qwevfZe19Dke6D4Sr38E-71" value="" style="edgeStyle=orthogonalEdgeStyle;rounded=0;orthogonalLoop=1;jettySize=auto;html=1;" edge="1" parent="1" source="qwevfZe19Dke6D4Sr38E-72" target="qwevfZe19Dke6D4Sr38E-73">
          <mxGeometry relative="1" as="geometry" />
        </mxCell>
        <mxCell id="qwevfZe19Dke6D4Sr38E-72" value="&lt;div style=&quot;text-align: justify;&quot;&gt;- curtidas: int&lt;/div&gt;&lt;div style=&quot;text-align: justify;&quot;&gt;- comentarios: int&lt;/div&gt;&lt;div style=&quot;text-align: justify;&quot;&gt;- compartilhamentos: int&lt;/div&gt;" style="rounded=0;whiteSpace=wrap;html=1;" vertex="1" parent="1">
          <mxGeometry x="550" y="870" width="141" height="50" as="geometry" />
        </mxCell>
        <mxCell id="qwevfZe19Dke6D4Sr38E-73" value="+ exibir" style="rounded=0;whiteSpace=wrap;html=1;align=center;" vertex="1" parent="1">
          <mxGeometry x="550" y="920" width="141" height="30" as="geometry" />
        </mxCell>
        <mxCell id="qwevfZe19Dke6D4Sr38E-74" value="" style="endArrow=classic;html=1;rounded=0;exitX=0.5;exitY=0;exitDx=0;exitDy=0;entryX=0.474;entryY=1.005;entryDx=0;entryDy=0;entryPerimeter=0;" edge="1" parent="1" source="qwevfZe19Dke6D4Sr38E-65" target="qwevfZe19Dke6D4Sr38E-52">
          <mxGeometry width="50" height="50" relative="1" as="geometry">
            <mxPoint x="360" y="840" as="sourcePoint" />
            <mxPoint x="410" y="790" as="targetPoint" />
          </mxGeometry>
        </mxCell>
        <mxCell id="qwevfZe19Dke6D4Sr38E-75" value="" style="endArrow=classic;html=1;rounded=0;exitX=0.5;exitY=0;exitDx=0;exitDy=0;entryX=0.25;entryY=1;entryDx=0;entryDy=0;" edge="1" parent="1" source="qwevfZe19Dke6D4Sr38E-59" target="qwevfZe19Dke6D4Sr38E-52">
          <mxGeometry width="50" height="50" relative="1" as="geometry">
            <mxPoint x="360" y="840" as="sourcePoint" />
            <mxPoint x="410" y="790" as="targetPoint" />
          </mxGeometry>
        </mxCell>
        <mxCell id="qwevfZe19Dke6D4Sr38E-76" value="" style="endArrow=classic;html=1;rounded=0;exitX=0.5;exitY=0;exitDx=0;exitDy=0;entryX=0.75;entryY=1;entryDx=0;entryDy=0;" edge="1" parent="1" source="qwevfZe19Dke6D4Sr38E-70" target="qwevfZe19Dke6D4Sr38E-52">
          <mxGeometry width="50" height="50" relative="1" as="geometry">
            <mxPoint x="360" y="840" as="sourcePoint" />
            <mxPoint x="410" y="790" as="targetPoint" />
          </mxGeometry>
        </mxCell>
      </root>
    </mxGraphModel>
  </diagram>
</mxfile>
